<svg xmlns="http://www.w3.org/2000/svg" xmlns:xlink="http://www.w3.org/1999/xlink" width="500" zoomAndPan="magnify" viewBox="0 0 375 374.999991" height="500" preserveAspectRatio="xMidYMid meet" version="1.0"><defs><g/><clipPath id="87e148d053"><path d="M 66 184 L 126.636719 184 L 126.636719 244 L 66 244 Z M 66 184 " clip-rule="nonzero"/></clipPath><clipPath id="354d8a884b"><path d="M 6.742188 124.222656 L 117 124.222656 L 117 234 L 6.742188 234 Z M 6.742188 124.222656 " clip-rule="nonzero"/></clipPath></defs><g fill="#000000" fill-opacity="1"><g transform="translate(125.251761, 213.318588)"><g><path d="M 55.832031 -41.957031 C 55.832031 -51.679688 50.695312 -59.328125 38.242188 -59.328125 C 30.15625 -59.328125 26.113281 -56.160156 18.464844 -49.058594 L 18.027344 -54.628906 C 17.808594 -56.925781 15.953125 -58.671875 13.65625 -58.671875 C 11.253906 -58.671875 9.285156 -56.707031 9.285156 -54.300781 L 9.285156 -4.261719 C 9.285156 -1.640625 11.363281 0.65625 14.09375 0.65625 C 16.824219 0.65625 19.011719 -1.53125 19.011719 -4.261719 L 19.011719 -40.863281 C 27.097656 -47.199219 31.359375 -50.148438 37.039062 -50.148438 C 43.8125 -50.148438 46.109375 -45.890625 46.109375 -41.082031 L 46.109375 -4.261719 C 46.109375 -1.53125 48.292969 0.65625 50.914062 0.65625 C 53.648438 0.65625 55.832031 -1.53125 55.832031 -4.261719 Z M 55.832031 -41.957031 "/></g></g></g><g fill="#000000" fill-opacity="1"><g transform="translate(198.78028, 213.318588)"><g><path d="M 19.449219 -4.261719 L 19.449219 -80.304688 C 19.449219 -83.039062 17.261719 -85.222656 14.640625 -85.222656 C 11.910156 -85.222656 9.722656 -83.039062 9.722656 -80.304688 L 9.722656 -4.261719 C 9.722656 -1.53125 11.910156 0.65625 14.53125 0.65625 C 17.261719 0.65625 19.449219 -1.53125 19.449219 -4.261719 Z M 19.449219 -4.261719 "/></g></g></g><g fill="#000000" fill-opacity="1"><g transform="translate(235.818, 213.318588)"><g><path d="M 8.960938 15.734375 C 7.648438 15.734375 6.554688 15.40625 5.789062 15.078125 L 4.917969 14.75 C 4.261719 14.53125 3.605469 14.421875 3.058594 14.421875 C 0.875 14.421875 -0.875 16.171875 -0.875 18.464844 C -0.875 22.507812 4.699219 23.710938 9.503906 23.710938 C 15.515625 23.710938 22.070312 20.539062 25.128906 13.4375 L 53.757812 -52.117188 C 53.972656 -52.773438 54.191406 -53.429688 54.191406 -53.972656 C 54.191406 -56.488281 52.335938 -58.671875 49.714844 -58.671875 C 47.746094 -58.671875 46.109375 -57.578125 45.34375 -55.832031 L 28.296875 -15.515625 L 13.109375 -55.722656 C 12.457031 -57.472656 10.707031 -58.671875 8.851562 -58.671875 C 6.117188 -58.671875 4.152344 -56.488281 4.152344 -53.972656 C 4.152344 -53.539062 4.261719 -52.992188 4.480469 -52.445312 L 23.164062 -3.386719 L 18.792969 6.664062 C 17.042969 10.707031 14.3125 15.734375 8.960938 15.734375 Z M 8.960938 15.734375 "/></g></g></g><g fill="#000000" fill-opacity="1"><g transform="translate(301.043231, 213.318588)"><g><path d="M 48.292969 -74.953125 L 3.933594 -10.378906 C 3.058594 -9.179688 2.730469 -7.867188 2.730469 -6.664062 C 2.730469 -3.167969 5.464844 0 9.394531 0 L 56.050781 0 C 58.5625 0 60.75 -2.074219 60.75 -4.699219 C 60.75 -7.320312 58.5625 -9.394531 56.050781 -9.394531 L 14.96875 -9.394531 L 59.21875 -74.40625 C 59.984375 -75.609375 60.3125 -76.808594 60.3125 -78.121094 C 60.3125 -81.507812 57.6875 -84.566406 53.863281 -84.566406 L 9.832031 -84.566406 C 7.101562 -84.566406 5.027344 -82.273438 5.027344 -79.542969 C 5.027344 -77.027344 7.210938 -74.953125 9.832031 -74.953125 Z M 48.292969 -74.953125 "/></g></g></g><g clip-path="url(#87e148d053)"><path fill="#00abff" d="M 126.375 207.445312 C 126.375 208.589844 125.621094 209.578125 124.582031 209.917969 L 100.371094 217.847656 L 92.4375 242.058594 C 92.09375 243.101562 91.109375 243.851562 89.96875 243.851562 C 88.851562 243.851562 87.914062 243.148438 87.550781 242.1875 L 66.742188 187.574219 C 66.609375 187.285156 66.558594 186.976562 66.558594 186.640625 C 66.558594 185.207031 67.730469 184.035156 69.160156 184.035156 C 69.5 184.035156 69.808594 184.085938 70.097656 184.222656 L 124.714844 205.027344 C 125.671875 205.386719 126.375 206.324219 126.375 207.445312 Z M 126.375 207.445312 " fill-opacity="1" fill-rule="nonzero"/></g><g clip-path="url(#354d8a884b)"><path fill="#000000" d="M 61.574219 233.882812 C 31.34375 233.882812 6.742188 209.285156 6.742188 179.050781 C 6.742188 148.820312 31.34375 124.222656 61.574219 124.222656 C 91.804688 124.222656 116.40625 148.820312 116.40625 179.050781 C 116.40625 181.496094 116.246094 183.898438 115.925781 186.191406 C 115.558594 188.917969 113.03125 190.816406 110.3125 190.449219 C 107.582031 190.074219 105.679688 187.554688 106.058594 184.828125 C 106.3125 182.984375 106.4375 181.042969 106.4375 179.050781 C 106.4375 154.320312 86.3125 134.191406 61.574219 134.191406 C 36.835938 134.191406 16.710938 154.320312 16.710938 179.050781 C 16.710938 203.785156 36.835938 223.914062 61.574219 223.914062 C 63.546875 223.914062 65.492188 223.785156 67.355469 223.53125 C 70.074219 223.136719 72.601562 225.066406 72.96875 227.792969 C 73.339844 230.519531 71.429688 233.03125 68.703125 233.40625 C 66.394531 233.722656 63.996094 233.882812 61.574219 233.882812 Z M 61.574219 233.882812 " fill-opacity="1" fill-rule="nonzero"/></g><path fill="#000000" d="M 59.207031 208.886719 C 59.050781 208.886719 58.898438 208.878906 58.738281 208.867188 C 43.265625 207.429688 31.589844 194.609375 31.589844 179.046875 C 31.589844 162.519531 45.035156 149.070312 61.570312 149.070312 C 77.179688 149.070312 90 160.769531 91.386719 176.28125 C 91.632812 179.023438 89.613281 181.445312 86.867188 181.6875 C 84.039062 181.894531 81.703125 179.90625 81.457031 177.167969 C 80.53125 166.828125 71.980469 159.035156 61.570312 159.035156 C 50.539062 159.035156 41.5625 168.007812 41.5625 179.042969 C 41.5625 189.425781 49.347656 197.972656 59.664062 198.9375 C 62.40625 199.191406 64.421875 201.617188 64.167969 204.359375 C 63.925781 206.945312 61.753906 208.886719 59.207031 208.886719 Z M 59.207031 208.886719 " fill-opacity="1" fill-rule="nonzero"/></svg>